<mxfile host="app.diagrams.net" agent="Mozilla/5.0 (Windows NT 10.0; Win64; x64) AppleWebKit/537.36 (KHTML, like Gecko) Chrome/130.0.0.0 Safari/537.36" version="24.8.3">
  <diagram id="R2lEEEUBdFMjLlhIrx00" name="Page-1">
    <mxGraphModel dx="1050" dy="691" grid="1" gridSize="10" guides="1" tooltips="1" connect="1" arrows="1" fold="1" page="1" pageScale="1" pageWidth="850" pageHeight="1100" background="none" math="0" shadow="0" extFonts="Permanent Marker^https://fonts.googleapis.com/css?family=Permanent+Marker">
      <root>
        <mxCell id="0" />
        <mxCell id="1" parent="0" />
        <mxCell id="3NkVY13ePj7WuvYUsF0g-21" style="edgeStyle=orthogonalEdgeStyle;rounded=0;orthogonalLoop=1;jettySize=auto;html=1;exitX=0.25;exitY=0;exitDx=0;exitDy=0;endArrow=oval;endFill=1;" parent="1" source="3NkVY13ePj7WuvYUsF0g-1" edge="1">
          <mxGeometry relative="1" as="geometry">
            <mxPoint x="100" y="190" as="targetPoint" />
          </mxGeometry>
        </mxCell>
        <mxCell id="3NkVY13ePj7WuvYUsF0g-22" style="edgeStyle=orthogonalEdgeStyle;rounded=0;orthogonalLoop=1;jettySize=auto;html=1;exitX=0.75;exitY=0;exitDx=0;exitDy=0;endArrow=oval;endFill=0;" parent="1" source="3NkVY13ePj7WuvYUsF0g-1" edge="1">
          <mxGeometry relative="1" as="geometry">
            <mxPoint x="160" y="170" as="targetPoint" />
          </mxGeometry>
        </mxCell>
        <mxCell id="3NkVY13ePj7WuvYUsF0g-23" value="Nome" style="edgeLabel;html=1;align=center;verticalAlign=middle;resizable=0;points=[];" parent="3NkVY13ePj7WuvYUsF0g-22" vertex="1" connectable="0">
          <mxGeometry x="1" y="2" relative="1" as="geometry">
            <mxPoint x="2" y="-10" as="offset" />
          </mxGeometry>
        </mxCell>
        <mxCell id="3NkVY13ePj7WuvYUsF0g-1" value="PRODOTTO" style="rounded=0;whiteSpace=wrap;html=1;" parent="1" vertex="1">
          <mxGeometry x="70" y="240" width="120" height="60" as="geometry" />
        </mxCell>
        <mxCell id="3NkVY13ePj7WuvYUsF0g-14" style="edgeStyle=orthogonalEdgeStyle;rounded=0;orthogonalLoop=1;jettySize=auto;html=1;endArrow=oval;endFill=1;" parent="1" source="3NkVY13ePj7WuvYUsF0g-2" edge="1">
          <mxGeometry relative="1" as="geometry">
            <mxPoint x="700" y="170" as="targetPoint" />
          </mxGeometry>
        </mxCell>
        <mxCell id="3NkVY13ePj7WuvYUsF0g-16" value="Nome" style="edgeLabel;html=1;align=center;verticalAlign=middle;resizable=0;points=[];" parent="3NkVY13ePj7WuvYUsF0g-14" vertex="1" connectable="0">
          <mxGeometry x="0.9936" y="5" relative="1" as="geometry">
            <mxPoint x="5" y="-11" as="offset" />
          </mxGeometry>
        </mxCell>
        <mxCell id="3NkVY13ePj7WuvYUsF0g-15" style="edgeStyle=orthogonalEdgeStyle;rounded=0;orthogonalLoop=1;jettySize=auto;html=1;exitX=0.25;exitY=0;exitDx=0;exitDy=0;endArrow=oval;endFill=0;" parent="1" source="3NkVY13ePj7WuvYUsF0g-2" edge="1">
          <mxGeometry relative="1" as="geometry">
            <mxPoint x="670" y="170" as="targetPoint" />
          </mxGeometry>
        </mxCell>
        <mxCell id="3NkVY13ePj7WuvYUsF0g-18" value="Indirizzo" style="edgeLabel;html=1;align=center;verticalAlign=middle;resizable=0;points=[];" parent="3NkVY13ePj7WuvYUsF0g-15" vertex="1" connectable="0">
          <mxGeometry x="0.9487" relative="1" as="geometry">
            <mxPoint x="-30" y="-1" as="offset" />
          </mxGeometry>
        </mxCell>
        <mxCell id="3NkVY13ePj7WuvYUsF0g-17" style="edgeStyle=orthogonalEdgeStyle;rounded=0;orthogonalLoop=1;jettySize=auto;html=1;exitX=0.75;exitY=0;exitDx=0;exitDy=0;endArrow=oval;endFill=0;" parent="1" source="3NkVY13ePj7WuvYUsF0g-2" edge="1">
          <mxGeometry relative="1" as="geometry">
            <mxPoint x="730" y="200" as="targetPoint" />
          </mxGeometry>
        </mxCell>
        <mxCell id="3NkVY13ePj7WuvYUsF0g-19" value="Recapito Telefonico" style="edgeLabel;html=1;align=center;verticalAlign=middle;resizable=0;points=[];" parent="3NkVY13ePj7WuvYUsF0g-17" vertex="1" connectable="0">
          <mxGeometry x="0.7658" y="2" relative="1" as="geometry">
            <mxPoint x="52" y="-15" as="offset" />
          </mxGeometry>
        </mxCell>
        <mxCell id="3NkVY13ePj7WuvYUsF0g-2" value="FORNITORE" style="rounded=0;whiteSpace=wrap;html=1;" parent="1" vertex="1">
          <mxGeometry x="640" y="240" width="120" height="60" as="geometry" />
        </mxCell>
        <mxCell id="3NkVY13ePj7WuvYUsF0g-5" value="(0,N)" style="edgeStyle=orthogonalEdgeStyle;rounded=0;orthogonalLoop=1;jettySize=auto;html=1;endArrow=none;endFill=0;verticalAlign=middle;" parent="1" source="3NkVY13ePj7WuvYUsF0g-3" target="3NkVY13ePj7WuvYUsF0g-2" edge="1">
          <mxGeometry x="0.6842" y="10" relative="1" as="geometry">
            <mxPoint as="offset" />
          </mxGeometry>
        </mxCell>
        <mxCell id="3NkVY13ePj7WuvYUsF0g-6" value="(0,N)" style="edgeStyle=orthogonalEdgeStyle;rounded=0;orthogonalLoop=1;jettySize=auto;html=1;entryX=1;entryY=0.5;entryDx=0;entryDy=0;startArrow=none;startFill=0;endArrow=none;endFill=0;labelPosition=center;verticalLabelPosition=middle;align=center;verticalAlign=middle;" parent="1" source="3NkVY13ePj7WuvYUsF0g-3" target="3NkVY13ePj7WuvYUsF0g-1" edge="1">
          <mxGeometry x="0.6842" y="-10" relative="1" as="geometry">
            <mxPoint as="offset" />
          </mxGeometry>
        </mxCell>
        <mxCell id="3NkVY13ePj7WuvYUsF0g-11" style="edgeStyle=orthogonalEdgeStyle;rounded=0;orthogonalLoop=1;jettySize=auto;html=1;endArrow=circle;endFill=0;" parent="1" source="3NkVY13ePj7WuvYUsF0g-3" edge="1">
          <mxGeometry relative="1" as="geometry">
            <mxPoint x="415" y="180" as="targetPoint" />
          </mxGeometry>
        </mxCell>
        <mxCell id="3NkVY13ePj7WuvYUsF0g-12" value="Prezzo" style="edgeLabel;html=1;align=center;verticalAlign=middle;resizable=0;points=[];" parent="3NkVY13ePj7WuvYUsF0g-11" vertex="1" connectable="0">
          <mxGeometry x="1" y="3" relative="1" as="geometry">
            <mxPoint x="5" y="-9" as="offset" />
          </mxGeometry>
        </mxCell>
        <mxCell id="3NkVY13ePj7WuvYUsF0g-3" value="FORNISCE" style="rhombus;whiteSpace=wrap;html=1;" parent="1" vertex="1">
          <mxGeometry x="370" y="230" width="90" height="80" as="geometry" />
        </mxCell>
        <mxCell id="3NkVY13ePj7WuvYUsF0g-20" value="(1,N)" style="text;html=1;align=center;verticalAlign=middle;whiteSpace=wrap;rounded=0;" parent="1" vertex="1">
          <mxGeometry x="730" y="210" width="50" height="20" as="geometry" />
        </mxCell>
        <mxCell id="3NkVY13ePj7WuvYUsF0g-24" value="Codice" style="text;html=1;align=center;verticalAlign=middle;resizable=0;points=[];autosize=1;strokeColor=none;fillColor=none;" parent="1" vertex="1">
          <mxGeometry x="70" y="160" width="60" height="30" as="geometry" />
        </mxCell>
        <mxCell id="3NkVY13ePj7WuvYUsF0g-36" style="edgeStyle=orthogonalEdgeStyle;rounded=0;orthogonalLoop=1;jettySize=auto;html=1;exitX=0.25;exitY=1;exitDx=0;exitDy=0;endArrow=oval;endFill=1;" parent="1" source="3NkVY13ePj7WuvYUsF0g-29" edge="1">
          <mxGeometry relative="1" as="geometry">
            <mxPoint x="100" y="590" as="targetPoint" />
          </mxGeometry>
        </mxCell>
        <mxCell id="3NkVY13ePj7WuvYUsF0g-38" value="Numero" style="edgeLabel;html=1;align=center;verticalAlign=middle;resizable=0;points=[];" parent="3NkVY13ePj7WuvYUsF0g-36" vertex="1" connectable="0">
          <mxGeometry x="0.8927" y="-1" relative="1" as="geometry">
            <mxPoint x="1" y="14" as="offset" />
          </mxGeometry>
        </mxCell>
        <mxCell id="3NkVY13ePj7WuvYUsF0g-64" style="edgeStyle=orthogonalEdgeStyle;rounded=0;orthogonalLoop=1;jettySize=auto;html=1;exitX=0.5;exitY=1;exitDx=0;exitDy=0;endArrow=oval;endFill=1;" parent="1" source="3NkVY13ePj7WuvYUsF0g-29" edge="1">
          <mxGeometry relative="1" as="geometry">
            <mxPoint x="130" y="570" as="targetPoint" />
          </mxGeometry>
        </mxCell>
        <mxCell id="3NkVY13ePj7WuvYUsF0g-65" value="Nome" style="edgeLabel;html=1;align=center;verticalAlign=middle;resizable=0;points=[];" parent="3NkVY13ePj7WuvYUsF0g-64" vertex="1" connectable="0">
          <mxGeometry x="0.3825" y="-1" relative="1" as="geometry">
            <mxPoint x="1" y="26" as="offset" />
          </mxGeometry>
        </mxCell>
        <mxCell id="3NkVY13ePj7WuvYUsF0g-29" value="REPARTO" style="rounded=0;whiteSpace=wrap;html=1;" parent="1" vertex="1">
          <mxGeometry x="70" y="460" width="120" height="60" as="geometry" />
        </mxCell>
        <mxCell id="3NkVY13ePj7WuvYUsF0g-41" style="edgeStyle=orthogonalEdgeStyle;rounded=0;orthogonalLoop=1;jettySize=auto;html=1;exitX=1;exitY=0.25;exitDx=0;exitDy=0;endArrow=oval;endFill=0;" parent="1" source="3NkVY13ePj7WuvYUsF0g-31" edge="1">
          <mxGeometry relative="1" as="geometry">
            <mxPoint x="740" y="475" as="targetPoint" />
          </mxGeometry>
        </mxCell>
        <mxCell id="3NkVY13ePj7WuvYUsF0g-47" value="Nome" style="edgeLabel;html=1;align=center;verticalAlign=middle;resizable=0;points=[];" parent="3NkVY13ePj7WuvYUsF0g-41" vertex="1" connectable="0">
          <mxGeometry x="0.8952" y="-1" relative="1" as="geometry">
            <mxPoint x="24" as="offset" />
          </mxGeometry>
        </mxCell>
        <mxCell id="3NkVY13ePj7WuvYUsF0g-42" style="edgeStyle=orthogonalEdgeStyle;rounded=0;orthogonalLoop=1;jettySize=auto;html=1;exitX=1;exitY=0.75;exitDx=0;exitDy=0;endArrow=oval;endFill=1;" parent="1" source="3NkVY13ePj7WuvYUsF0g-31" edge="1">
          <mxGeometry relative="1" as="geometry">
            <mxPoint x="720" y="505" as="targetPoint" />
          </mxGeometry>
        </mxCell>
        <mxCell id="3NkVY13ePj7WuvYUsF0g-48" value="Codice Fiscale" style="edgeLabel;html=1;align=center;verticalAlign=middle;resizable=0;points=[];" parent="3NkVY13ePj7WuvYUsF0g-42" vertex="1" connectable="0">
          <mxGeometry x="0.8296" y="3" relative="1" as="geometry">
            <mxPoint x="46" y="8" as="offset" />
          </mxGeometry>
        </mxCell>
        <mxCell id="3NkVY13ePj7WuvYUsF0g-31" value="DIPENDENTE" style="rounded=0;whiteSpace=wrap;html=1;" parent="1" vertex="1">
          <mxGeometry x="540" y="460" width="120" height="60" as="geometry" />
        </mxCell>
        <mxCell id="3NkVY13ePj7WuvYUsF0g-54" style="edgeStyle=orthogonalEdgeStyle;rounded=0;orthogonalLoop=1;jettySize=auto;html=1;exitX=0;exitY=0.5;exitDx=0;exitDy=0;entryX=1;entryY=0.5;entryDx=0;entryDy=0;endArrow=none;endFill=0;" parent="1" source="3NkVY13ePj7WuvYUsF0g-32" target="3NkVY13ePj7WuvYUsF0g-53" edge="1">
          <mxGeometry relative="1" as="geometry" />
        </mxCell>
        <mxCell id="3NkVY13ePj7WuvYUsF0g-59" value="(1,1)" style="edgeLabel;html=1;align=center;verticalAlign=middle;resizable=0;points=[];" parent="3NkVY13ePj7WuvYUsF0g-54" vertex="1" connectable="0">
          <mxGeometry x="-0.3257" y="1" relative="1" as="geometry">
            <mxPoint x="27" y="-11" as="offset" />
          </mxGeometry>
        </mxCell>
        <mxCell id="3NkVY13ePj7WuvYUsF0g-32" value="CAPO&lt;div&gt;REPARTO&lt;/div&gt;" style="rounded=0;whiteSpace=wrap;html=1;" parent="1" vertex="1">
          <mxGeometry x="540" y="600" width="120" height="60" as="geometry" />
        </mxCell>
        <mxCell id="3NkVY13ePj7WuvYUsF0g-40" value="" style="shape=flexArrow;endArrow=classic;html=1;rounded=0;exitX=0.5;exitY=0;exitDx=0;exitDy=0;" parent="1" source="3NkVY13ePj7WuvYUsF0g-32" edge="1">
          <mxGeometry width="50" height="50" relative="1" as="geometry">
            <mxPoint x="599.5" y="580" as="sourcePoint" />
            <mxPoint x="599.5" y="520" as="targetPoint" />
          </mxGeometry>
        </mxCell>
        <mxCell id="3NkVY13ePj7WuvYUsF0g-46" value="" style="endArrow=oval;html=1;rounded=0;endFill=0;" parent="1" edge="1">
          <mxGeometry width="50" height="50" relative="1" as="geometry">
            <mxPoint x="640" y="460" as="sourcePoint" />
            <mxPoint x="670" y="430" as="targetPoint" />
          </mxGeometry>
        </mxCell>
        <mxCell id="3NkVY13ePj7WuvYUsF0g-49" value="Stipendio" style="edgeLabel;html=1;align=center;verticalAlign=middle;resizable=0;points=[];" parent="3NkVY13ePj7WuvYUsF0g-46" vertex="1" connectable="0">
          <mxGeometry x="0.48" y="-4" relative="1" as="geometry">
            <mxPoint x="35" y="-11" as="offset" />
          </mxGeometry>
        </mxCell>
        <mxCell id="3NkVY13ePj7WuvYUsF0g-50" value="" style="endArrow=oval;html=1;rounded=0;endFill=0;" parent="1" edge="1">
          <mxGeometry width="50" height="50" relative="1" as="geometry">
            <mxPoint x="640" y="520" as="sourcePoint" />
            <mxPoint x="690" y="550" as="targetPoint" />
          </mxGeometry>
        </mxCell>
        <mxCell id="3NkVY13ePj7WuvYUsF0g-51" value="Indirizzo" style="edgeLabel;html=1;align=center;verticalAlign=middle;resizable=0;points=[];" parent="3NkVY13ePj7WuvYUsF0g-50" vertex="1" connectable="0">
          <mxGeometry x="0.2012" relative="1" as="geometry">
            <mxPoint x="50" y="12" as="offset" />
          </mxGeometry>
        </mxCell>
        <mxCell id="3NkVY13ePj7WuvYUsF0g-60" style="edgeStyle=orthogonalEdgeStyle;rounded=0;orthogonalLoop=1;jettySize=auto;html=1;entryX=1;entryY=0.5;entryDx=0;entryDy=0;endArrow=none;endFill=0;" parent="1" source="3NkVY13ePj7WuvYUsF0g-52" target="3NkVY13ePj7WuvYUsF0g-29" edge="1">
          <mxGeometry relative="1" as="geometry" />
        </mxCell>
        <mxCell id="3NkVY13ePj7WuvYUsF0g-63" value="(1,N)" style="edgeLabel;html=1;align=center;verticalAlign=middle;resizable=0;points=[];" parent="3NkVY13ePj7WuvYUsF0g-60" vertex="1" connectable="0">
          <mxGeometry x="0.1723" y="2" relative="1" as="geometry">
            <mxPoint x="-34" y="-12" as="offset" />
          </mxGeometry>
        </mxCell>
        <mxCell id="3NkVY13ePj7WuvYUsF0g-61" style="edgeStyle=orthogonalEdgeStyle;rounded=0;orthogonalLoop=1;jettySize=auto;html=1;exitX=1;exitY=0.5;exitDx=0;exitDy=0;entryX=0;entryY=0.5;entryDx=0;entryDy=0;endArrow=none;endFill=0;" parent="1" source="3NkVY13ePj7WuvYUsF0g-52" target="3NkVY13ePj7WuvYUsF0g-31" edge="1">
          <mxGeometry relative="1" as="geometry" />
        </mxCell>
        <mxCell id="3NkVY13ePj7WuvYUsF0g-62" value="(1,1)" style="edgeLabel;html=1;align=center;verticalAlign=middle;resizable=0;points=[];" parent="3NkVY13ePj7WuvYUsF0g-61" vertex="1" connectable="0">
          <mxGeometry x="-0.0171" relative="1" as="geometry">
            <mxPoint x="51" y="-10" as="offset" />
          </mxGeometry>
        </mxCell>
        <mxCell id="3NkVY13ePj7WuvYUsF0g-52" value="AFFERISCE" style="rhombus;whiteSpace=wrap;html=1;" parent="1" vertex="1">
          <mxGeometry x="320" y="450" width="80" height="80" as="geometry" />
        </mxCell>
        <mxCell id="3NkVY13ePj7WuvYUsF0g-57" style="edgeStyle=orthogonalEdgeStyle;rounded=0;orthogonalLoop=1;jettySize=auto;html=1;exitX=0;exitY=0.5;exitDx=0;exitDy=0;entryX=0.75;entryY=1;entryDx=0;entryDy=0;endArrow=none;endFill=0;" parent="1" source="3NkVY13ePj7WuvYUsF0g-53" target="3NkVY13ePj7WuvYUsF0g-29" edge="1">
          <mxGeometry relative="1" as="geometry" />
        </mxCell>
        <mxCell id="3NkVY13ePj7WuvYUsF0g-58" value="(1,1)" style="edgeLabel;html=1;align=center;verticalAlign=middle;resizable=0;points=[];" parent="3NkVY13ePj7WuvYUsF0g-57" vertex="1" connectable="0">
          <mxGeometry x="0.7378" y="1" relative="1" as="geometry">
            <mxPoint x="21" y="-15" as="offset" />
          </mxGeometry>
        </mxCell>
        <mxCell id="3NkVY13ePj7WuvYUsF0g-53" value="GESTISCE" style="rhombus;whiteSpace=wrap;html=1;" parent="1" vertex="1">
          <mxGeometry x="320" y="590" width="80" height="80" as="geometry" />
        </mxCell>
      </root>
    </mxGraphModel>
  </diagram>
</mxfile>
